HIERARCHY
ROOT Hips
{
  OFFSET -189.66 92.4268 -194.775
  CHANNELS 6 Xposition Yposition Zposition Zrotation Xrotation Yrotation
  JOINT Spine
  {
    OFFSET 10.2832 1.67858 -0.048102
    CHANNELS 3 Zrotation Xrotation Yrotation
    JOINT Spine1
    {
      OFFSET 12.2747 3.29442 1.09098
      CHANNELS 3 Zrotation Xrotation Yrotation
      JOINT Neck
      {
        OFFSET 31.2239 8.00151 -0.587386
        CHANNELS 3 Zrotation Xrotation Yrotation
        JOINT Head
        {
          OFFSET 9.52751 0.295786 -0.907742
          CHANNELS 3 Zrotation Xrotation Yrotation
          End Site
          {
            OFFSET 16.4037 0.791643 2.7358
          }
        }
      }
      JOINT LeftShoulder
      {
        OFFSET 28.911 5.13152 2.01494
        CHANNELS 3 Zrotation Xrotation Yrotation
        JOINT LeftArm
        {
          OFFSET 1.20734 -0.998971 20.1238
          CHANNELS 3 Zrotation Xrotation Yrotation
          JOINT LeftForeArm
          {
            OFFSET 26.8049 -0.0536703 -0.155908
            CHANNELS 3 Zrotation Xrotation Yrotation
            JOINT LeftHand
            {
              OFFSET 26.6817 0 0.320147
              CHANNELS 3 Zrotation Xrotation Yrotation
              End Site
              {
                OFFSET 18.6119 0 0.382219
              }
            }
          }
        }
      }
      JOINT RightShoulder
      {
        OFFSET 28.9463 4.89009 -3.10871
        CHANNELS 3 Zrotation Xrotation Yrotation
        JOINT RightArm
        {
          OFFSET 2.83739 -1.17114 -18.7564
          CHANNELS 3 Zrotation Xrotation Yrotation
          JOINT RightForeArm
          {
            OFFSET 28.839 -0.0548439 1.22491
            CHANNELS 3 Zrotation Xrotation Yrotation
            JOINT RightHand
            {
              OFFSET 26.5114 0 -0.101894
              CHANNELS 3 Zrotation Xrotation Yrotation
              End Site
              {
                OFFSET 18.2168 0 0
              }
            }
          }
        }
      }
    }
  }
  JOINT LeftUpLeg
  {
    OFFSET -2.09119 -9.33082 -10.081
    CHANNELS 3 Zrotation Xrotation Yrotation
    JOINT LeftLeg
    {
      OFFSET 2.55951 -42.0585 -8.02213
      CHANNELS 3 Zrotation Xrotation Yrotation
      JOINT LeftFoot
      {
        OFFSET 3.16357 -42.5282 -3.95426
        CHANNELS 3 Zrotation Xrotation Yrotation
        JOINT LeftToeBase
        {
          OFFSET 0.346054 -6.02161 12.8035
          CHANNELS 3 Zrotation Xrotation Yrotation
          End Site
          {
            OFFSET 0.134235 -1.35082 5.13018
          }
        }
      }
    }
  }
  JOINT RightUpLeg
  {
    OFFSET -2.27102 -8.83155 10.7989
    CHANNELS 3 Zrotation Xrotation Yrotation
    JOINT RightLeg
    {
      OFFSET -2.56294 -42.0364 -7.94377
      CHANNELS 3 Zrotation Xrotation Yrotation
      JOINT RightFoot
      {
        OFFSET -3.0952 -42.555 -4.02241
        CHANNELS 3 Zrotation Xrotation Yrotation
        JOINT RightToeBase
        {
          OFFSET -0.0828122 -6.13587 12.8035
          CHANNELS 3 Zrotation Xrotation Yrotation
          End Site
          {
            OFFSET -0.131328 -1.35082 5.13018
          }
        }
      }
    }
  }
}
MOTION
Frames:	7
Frame Time:	0.0333333
-264.942 90.6843 -260.683 60.8921 -39.0821 -22.3594 -156.565 14.1077 175.579 5.23756 26.691 -0.623773 -150.978 25.0369 176.114 -162.022 64.7068 -166.522 0.0803364 -13.8744 -37.0462 -75.4811 48.3795 -73.9667 9.48402 20.83 -27.6837 0.420957 0.000575378 0.35866 -1.82508 6.24545 43.7439 -71.4942 -31.3001 94.8281 12.8168 -15.4315 40.5603 0.58676 0.000331036 0.0646653 -23.3774 -2.02553 98.1161 -2.69539 39.641 -8.28798 2.65061 -0.310166 -0.44793 4.9633 -12.1782 10.4888 -68.4735 -0.611508 87.6161 2.87029 44.0545 6.32527 1.84985 4.69517 -0.530813 4.69157 -30.7296 6.20031 
-260.728 91.0175 -257.664 64.1263 -36.4338 -20.2395 -158.005 15.9372 174.135 4.19585 24.8069 0.116052 -150.559 24.7571 176.458 -161.179 64.3744 -167.034 0.0976797 -13.902 -36.3493 -75.4626 48.6891 -75.0066 9.70525 20.97 -27.8267 0.420957 0.000575378 0.35866 -1.82454 6.39783 43.0323 -72.9355 -33.9185 92.0185 11.7625 -14.6804 39.4571 0.58676 0.000331036 0.0646653 -26.8834 -6.75713 94.8559 -2.56335 41.9135 -5.17828 3.04915 -3.98375 -0.689115 2.74497 -7.77202 7.24411 -65.7107 -2.29463 86.2177 4.64551 54.2887 7.81638 2.32133 14.9909 -1.59559 2.55341 -22.8397 -7.18272 
-256.723 91.3646 -254.999 65.059 -36.2142 -20.4719 -158.573 16.4743 172.934 3.43604 24.2279 0.595908 -150.329 24.227 176.58 -160.373 63.8017 -167.626 0.0774581 -14.0642 -35.7687 -74.3486 48.8702 -76.9108 9.53713 18.4755 -28.7208 0.420957 0.000575378 0.35866 -1.83334 6.35953 43.3402 -70.4673 -34.8332 91.2016 8.0541 -10.717 37.4288 0.58676 0.000331036 0.0646653 -30.0146 -7.62402 96.3587 -2.81886 43.4454 -5.93923 4.4009 -7.22869 -0.948105 1.75165 -6.02267 7.47744 -59.3669 -3.54462 87.2474 6.53497 65.0794 -0.124787 -1.05934 17.5346 -0.891186 2.34721 -21.0152 -10.7416 
-253.124 92.2757 -252.384 66.3408 -35.6784 -19.757 -159.943 17.3475 171.922 2.30715 23.1803 1.75406 -149.612 23.8241 176.299 -158.63 63.3301 -168.719 0.0399206 -14.2876 -35.2917 -73.4129 48.362 -79.0232 8.60232 15.1031 -29.8291 0.420957 0.000575378 0.35866 -1.84785 6.25018 44.0722 -68.5992 -34.9722 90.4578 7.99635 -11.2642 35.8782 0.58676 0.000331036 0.0646653 -34.8619 -9.19837 95.2242 -2.61545 41.6451 -5.65124 5.3633 -8.56163 -1.0545 0.988373 -4.43761 6.8188 -53.1116 -4.76928 86.3819 7.78859 71.276 -8.21791 -8.1034 11.1222 1.11777 2.3791 -20.6678 -8.7713 
-249.476 93.0873 -249.489 65.996 -35.6708 -18.9207 -158.791 17.9807 173.072 3.75608 22.4885 1.22941 -148.627 23.2416 176.018 -157.654 62.7274 -168.869 0.034252 -14.4018 -34.7269 -71.8931 47.7474 -82.1714 11.631 18.5209 -32.5183 0.420957 0.000575378 0.35866 -1.88979 6.2278 44.8245 -67.2023 -35.5789 89.0602 8.50147 -12.9587 33.8111 0.58676 0.000331036 0.0646653 -38.1395 -8.28855 95.0378 -2.76377 41.2542 -7.03224 5.44661 -10.8452 -1.13216 0.315528 -3.55146 7.98078 -45.8606 -3.05886 87.2024 7.06779 73.8919 -14.5557 -3.77649 0.362434 0.620023 0.675259 -3.94942 -1.62786 
-245.754 93.887 -246.843 66.9139 -35.7255 -18.1978 -160.092 18.801 173.681 3.00086 21.7904 0.973325 -146.723 22.5713 174.838 -155.025 61.9618 -170.795 0.0744957 -14.3771 -33.8582 -72.4303 46.872 -83.0469 11.1769 16.0118 -35.2103 0.420957 0.000575378 0.35866 -1.86547 5.9423 45.8781 -66.8267 -35.9431 86.7193 7.65847 -12.0876 32.8619 0.58676 0.000331036 0.0646653 -43.4424 -9.03922 93.8374 -2.51428 38.5735 -6.85111 5.31077 -11.7486 -1.15783 0.420674 -3.80939 8.1996 -41.1076 -3.00297 86.7169 6.7625 71.8525 -11.5031 -9.46702 0.998187 1.37858 2.18005 -15.9906 -10.0588 
-242.324 94.7872 -243.932 64.9438 -34.9626 -17.9696 -157.944 19.6153 175.064 3.94841 20.8076 0.687038 -145.859 22.1439 174.656 -153.818 61.4722 -171.369 0.0625637 -14.4939 -33.4802 -72.5357 45.4767 -84.5123 11.6786 15.0055 -38.1937 0.420957 0.000575378 0.35866 -1.85544 5.86326 46.132 -66.6091 -37.3199 84.5208 5.09677 -8.49867 31.4366 0.58676 0.000331036 0.0646653 -45.4814 -7.40966 94.3404 -2.45815 36.8303 -7.27516 4.8825 -13.3849 -1.20823 0.547981 -3.7515 7.24841 -34.9465 -1.53783 85.8968 3.89892 65.9244 -10.5098 -8.66104 -2.77914 1.27646 2.13588 -14.9041 -9.89798 
